<?xml version="1.0" encoding="utf-8"?>
<!-- Generator: Adobe Illustrator 27.5.0, SVG Export Plug-In . SVG Version: 6.00 Build 0)  -->
<svg version="1.1" id="Слой_1" xmlns="http://www.w3.org/2000/svg" xmlns:xlink="http://www.w3.org/1999/xlink" x="0px" y="0px"
	 viewBox="0 0 664.436 500" style="enable-background:new 0 0 664.436 500;" xml:space="preserve">
<g>
	<rect x="0.001" style="fill:#F7F7F7;" width="664.435" height="500"/>
	<g>
		<g>
			<linearGradient id="SVGID_1_" gradientUnits="userSpaceOnUse" x1="176.0152" y1="264.5784" x2="476.4441" y2="264.5784">
				<stop  offset="0" style="stop-color:#40D5E6"/>
				<stop  offset="1" style="stop-color:#5577FF"/>
			</linearGradient>
			<path style="fill:url(#SVGID_1_);" d="M184.173,364.733h270.428V173.897c0-5.232-4.241-9.473-9.474-9.473h-251.48
				c-5.232,0-9.474,4.241-9.474,9.473V364.733z"/>
		</g>
		<g>
			
				<linearGradient id="SVGID_00000081634053998763532530000015491223125505463459_" gradientUnits="userSpaceOnUse" x1="193.7325" y1="251.2791" x2="444.5625" y2="251.2791">
				<stop  offset="0" style="stop-color:#404B61"/>
				<stop  offset="0.486" style="stop-color:#3C4860"/>
				<stop  offset="1" style="stop-color:#2F3E5C"/>
			</linearGradient>
			<polygon style="fill:url(#SVGID_00000081634053998763532530000015491223125505463459_);" points="193.733,328.323 
				444.563,328.323 444.563,174.235 193.733,174.235 			"/>
		</g>
		<g>
			<path style="fill:#6AAFE8;" d="M167.385,174.947h-63.803l0.111-0.568c1.024-5.255,5.662-9.07,11.026-9.07
				c0.774,0,1.546,0.081,2.3,0.24c3.324-6.317,9.782-10.225,16.943-10.225c6.103,0,11.855,2.929,15.462,7.853
				c1.313-0.4,2.681-0.602,4.066-0.602c6.942,0,12.75,4.973,13.809,11.824L167.385,174.947z M104.758,173.993h61.502
				c-1.199-6.005-6.592-10.466-12.768-10.466c-1.402,0-2.782,0.222-4.102,0.661l-0.337,0.111l-0.203-0.289
				c-3.412-4.842-8.977-7.732-14.887-7.732c-6.923,0-13.154,3.844-16.263,10.033l-0.171,0.34l-0.369-0.091
				c-0.795-0.196-1.615-0.296-2.44-0.296C110.006,166.263,105.906,169.48,104.758,173.993z"/>
		</g>
		<g>
			<path style="fill:#6AAFE8;" d="M401.701,96.412l-0.216-0.111c-22.642-11.56-19.601-33.947-19.568-34.172l0.061-0.407h0.411
				c14.395,0,18.92-4.639,18.964-4.686l0.351-0.372l0.35,0.375c0.043,0.045,4.566,4.684,18.962,4.684h0.411l0.061,0.407
				c0.033,0.225,3.074,22.612-19.568,34.172L401.701,96.412z M382.816,62.674c-0.287,3.032-1.24,22.25,18.885,32.666
				c20.127-10.416,19.173-29.634,18.887-32.666c-12.499-0.078-17.586-3.56-18.887-4.664
				C400.402,59.115,395.315,62.596,382.816,62.674z"/>
		</g>
		<g>
			<g>
				
					<linearGradient id="SVGID_00000069379292226085281380000006803879418127203204_" gradientUnits="userSpaceOnUse" x1="524.7351" y1="343.8921" x2="589.2735" y2="343.8921">
					<stop  offset="0" style="stop-color:#3076A1"/>
					<stop  offset="1" style="stop-color:#639C38"/>
				</linearGradient>
				<path style="fill:url(#SVGID_00000069379292226085281380000006803879418127203204_);" d="M525.594,393.943
					c-3.408-15.574,3.956-19.461,11.077-23.219c5.819-3.072,11.316-5.973,11.023-15.151c-0.388-12.168,7.901-16.595,15.214-20.5
					c5.441-2.906,10.579-5.65,11.346-11.188c1.845-13.321,14.133-29.88,14.256-30.045l0.764,0.571
					c-0.123,0.162-12.265,16.527-14.075,29.605c-0.833,6.017-6.181,8.872-11.841,11.897c-7.414,3.959-15.08,8.053-14.711,19.629
					c0.313,9.773-5.709,12.951-11.531,16.024c-7.119,3.757-13.844,7.306-10.591,22.172L525.594,393.943z"/>
			</g>
			<g>
				
					<linearGradient id="SVGID_00000076574196419504287970000013315355060164979861_" gradientUnits="userSpaceOnUse" x1="519.129" y1="334.4833" x2="603.3926" y2="334.4833">
					<stop  offset="0" style="stop-color:#3076A1"/>
					<stop  offset="1" style="stop-color:#639C38"/>
				</linearGradient>
				<path style="fill:url(#SVGID_00000076574196419504287970000013315355060164979861_);" d="M529.334,389.974
					c-0.163,0-0.326-0.006-0.491-0.017c-3.08-0.229-6.099-2.569-9.501-7.363l-0.213-0.301l0.238-0.282
					c0.055-0.066,5.508-6.712,3.506-19.189c-0.468-2.912-1.092-5.14-1.594-6.929c-0.732-2.611-1.216-4.336-0.406-5.713
					c1.029-1.747,3.809-2.663,11.639-4.527c8.338-1.986,11.125-11.38,13.585-19.668c2.316-7.807,4.511-15.169,10.998-14.941
					c5.962,0.228,15.016-9.114,23.003-17.349c7.413-7.642,14.408-14.841,18.882-14.698c1.074,0.039,1.98,0.489,2.693,1.338
					c3.987,4.749,0.268,11.954-3.329,18.921c-3.069,5.943-5.969,11.557-4.104,15.26c2.346,4.652,2.674,8.863,0.949,12.173
					c-2.039,3.919-6.795,6.445-14.135,7.509c-6.711,0.974-7.435,8.292-8.204,16.041c-0.896,9.043-1.912,19.291-13.173,20.266
					c-8.362,0.724-13.999,6.594-18.973,11.773C536.75,386.394,533.313,389.974,529.334,389.974z M520.325,382.33
					c3.099,4.292,5.91,6.477,8.588,6.676c3.743,0.277,7.154-3.276,11.104-7.391c5.09-5.301,10.858-11.309,19.578-12.063
					c10.473-0.906,11.404-10.313,12.307-19.41c0.806-8.131,1.566-15.811,9.016-16.891c7.02-1.017,11.536-3.373,13.427-7.005
					c1.576-3.027,1.247-6.937-0.955-11.304c-2.085-4.137,0.923-9.962,4.106-16.127c3.455-6.689,7.026-13.607,3.447-17.871
					c-0.539-0.643-1.193-0.969-1.998-0.998c-4.043-0.135-10.902,6.925-18.163,14.409c-8.415,8.676-17.113,17.642-23.479,17.643
					c-0.081,0-0.162-0.001-0.243-0.004c-5.753-0.214-7.745,6.494-10.05,14.259c-2.532,8.536-5.403,18.211-14.278,20.324
					c-7.081,1.686-10.179,2.627-11.036,4.084c-0.605,1.027-0.188,2.512,0.502,4.973c0.508,1.813,1.14,4.067,1.616,7.034
					C525.674,374.265,521.402,380.88,520.325,382.33z"/>
			</g>
			<g>
				
					<linearGradient id="SVGID_00000110454092203218901600000000932902861659231379_" gradientUnits="userSpaceOnUse" x1="499.7692" y1="321.7351" x2="554.1218" y2="321.7351">
					<stop  offset="0" style="stop-color:#3076A1"/>
					<stop  offset="1" style="stop-color:#639C38"/>
				</linearGradient>
				<path style="fill:url(#SVGID_00000110454092203218901600000000932902861659231379_);" d="M529.682,386.711
					c-0.111,0-0.223-0.005-0.334-0.016c-5.051-0.46-8.935-11.525-12.691-22.227c-1.782-5.076-3.465-9.871-5.105-12.948
					c-1.271-2.388-2.887-4.877-4.449-7.284c-4.161-6.411-8.464-13.041-7.064-18.858c0.736-3.06,2.933-5.607,6.715-7.787
					c8.277-4.771,7.005-7.464,4.215-13.367c-2.048-4.332-4.853-10.265-4.961-19.601c-0.046-4.013-0.139-7.482-0.222-10.543
					c-0.264-9.84-0.396-14.778,1.705-16.565c0.87-0.739,2.087-0.93,3.829-0.599c2.98,0.567,4.268,2.974,5.633,5.52
					c1.74,3.25,3.713,6.933,9.666,8.179c5.587,1.169,10.961,2.763,12.443,6.475c1.043,2.61,0.057,6.043-3.018,10.495
					c-0.745,1.079-1.001,1.997-0.781,2.806c0.486,1.793,3.27,3.092,6.494,4.596c4.586,2.141,10.295,4.805,11.912,10.319
					c1.303,4.446-0.205,9.991-4.609,16.951c-10.419,16.468-10,27.637-9.631,37.489c0.274,7.302,0.533,14.198-3.87,21.903
					C533.616,385.051,531.69,386.71,529.682,386.711z M509.829,257.712c-0.744,0-1.304,0.175-1.721,0.528
					c-1.753,1.492-1.617,6.579-1.369,15.815c0.082,3.064,0.175,6.537,0.222,10.557c0.105,9.128,2.859,14.952,4.869,19.205
					c2.768,5.857,4.439,9.391-4.601,14.6c-3.543,2.043-5.593,4.393-6.265,7.185c-1.304,5.419,2.886,11.874,6.938,18.117
					c1.573,2.425,3.2,4.931,4.49,7.355c1.674,3.142,3.368,7.97,5.162,13.081c3.486,9.932,7.438,21.189,11.879,21.594
					c1.695,0.151,3.478-1.384,5.299-4.57c4.268-7.469,4.025-13.922,3.745-21.396c-0.374-9.991-0.799-21.316,9.778-38.033
					c4.248-6.717,5.721-12.008,4.499-16.175c-1.495-5.102-6.758-7.558-11.4-9.724c-3.438-1.603-6.409-2.989-7.011-5.209
					c-0.297-1.097,0.003-2.272,0.917-3.598c2.879-4.169,3.833-7.309,2.917-9.6c-1.319-3.304-6.682-4.834-11.753-5.896
					c-6.389-1.338-8.563-5.4-10.312-8.662c-1.309-2.442-2.438-4.552-4.971-5.033C510.651,257.759,510.215,257.712,509.829,257.712z"
					/>
			</g>
			<g>
				
					<linearGradient id="SVGID_00000169528001882799365660000009118665143365984134_" gradientUnits="userSpaceOnUse" x1="514.8763" y1="333.4883" x2="531.3555" y2="333.4883">
					<stop  offset="0" style="stop-color:#3076A1"/>
					<stop  offset="1" style="stop-color:#639C38"/>
				</linearGradient>
				<path style="fill:url(#SVGID_00000169528001882799365660000009118665143365984134_);" d="M529.781,392.616l-0.908-0.287
					c5.092-16.095-4.119-52.206-6.863-60.994c-1.351-4.321-0.103-10.827,1.104-17.118c1.559-8.125,3.17-16.527-0.939-19.677
					c-7.715-5.915-7.309-19.6-7.288-20.18l0.952,0.035c-0.004,0.137-0.407,13.773,6.916,19.389
					c4.576,3.507,2.908,12.203,1.295,20.612c-1.184,6.176-2.408,12.56-1.131,16.654C526.315,341.919,534.861,376.56,529.781,392.616
					z"/>
			</g>
			
				<linearGradient id="SVGID_00000107572385725249926340000014554671444154406310_" gradientUnits="userSpaceOnUse" x1="477.5784" y1="336.7546" x2="530.7799" y2="336.7546">
				<stop  offset="0" style="stop-color:#3076A1"/>
				<stop  offset="1" style="stop-color:#639C38"/>
			</linearGradient>
			<path style="fill:url(#SVGID_00000107572385725249926340000014554671444154406310_);" d="M491.267,288.074
				c-2.12-5.381-10.399-4.564-9.638,3.044c0.76,7.609,6.087,15.725-2.029,28.661c-8.117,12.935,10.398,15.472,16.993,23.588
				c6.595,8.116,8.878,19.276,14.458,26.379c5.58,7.102,9.385,24.096,13.949,17.755c4.567-6.341,0.27-14.587,0.776-26.001
				c0.507-11.414,10.666-18.64,0.507-25.995c-10.16-7.357-20.377-9.611-17.022-26.2C510.74,301.985,497.861,304.815,491.267,288.074
				z"/>
			<g>
				<path style="fill:#FFFFFF;" d="M532.393,388.969c-0.056-0.337-5.696-33.771-18.325-42.934
					c-12.878-9.343-15.218-17.975-19.716-38.328l0.931-0.205c4.443,20.102,6.748,28.624,19.345,37.763
					c12.945,9.392,18.477,42.158,18.706,43.549L532.393,388.969z"/>
			</g>
			
				<linearGradient id="SVGID_00000072974627125872561400000000752455896828116907_" gradientUnits="userSpaceOnUse" x1="513.2006" y1="457.2947" x2="557.9615" y2="283.2246">
				<stop  offset="0" style="stop-color:#3076A1"/>
				<stop  offset="1" style="stop-color:#639C38"/>
			</linearGradient>
			<path style="fill:url(#SVGID_00000072974627125872561400000000752455896828116907_);" d="M520.998,387.771
				c0,0,3.753-9.279-3.076-22.47c-6.83-13.191-12.357-11.162,4.106-21.31c16.462-10.147,0.103-42.11,14.117-46.168
				c14.014-4.06,26.19-55.793,36.845-49.205c10.655,6.587-3.552,31.955,4.059,39.565c7.61,7.611,8.626,17.295-7.103,25.136
				c-15.729,7.842,11.162,37.776-10.146,46.908C538.489,369.359,544.602,405.168,520.998,387.771z"/>
			<g>
				<path style="fill:#FFFFFF;" d="M527.508,397.613c-0.024-0.119-2.315-12.001,4.924-27.354
					c7.375-15.641,10.905-32.739,9.443-45.739c-0.793-7.039,3.717-9.793,8.079-12.456c4.294-2.622,8.734-5.333,8.489-12.27
					c-0.221-6.266,2.431-20.955,2.544-21.577l0.938,0.171c-0.028,0.151-2.748,15.209-2.529,21.373
					c0.264,7.493-4.418,10.352-8.946,13.115c-4.296,2.624-8.353,5.1-7.628,11.537c1.481,13.168-2.081,30.458-9.528,46.251
					c-7.097,15.05-4.876,26.644-4.852,26.759L527.508,397.613z"/>
			</g>
			<path style="fill:#FFFFFF;" d="M544.727,332.048c4.785-4.444,11.113-5.085,9.795,1.508c-1.318,6.593-5.84,8.477-3.578,12.621
				c2.26,4.145,6.027,8.288-0.377,13.375c-6.405,5.086-9.984,5.65-11.868,15.259c-1.884,9.606-1.507,16.167-9.796,16.577
				c-8.289,0.409-5.086-11.681-2.449-17.144c0,0,3.956-6.233,1.318-14.419c-2.637-8.186-7.723-12.607,3.015-15.388
				C541.523,341.656,541.5,335.045,544.727,332.048z"/>
			<g>
				
					<linearGradient id="SVGID_00000149341647523127708150000004984216036247199106_" gradientUnits="userSpaceOnUse" x1="529.4708" y1="367.0611" x2="549.1387" y2="367.0611">
					<stop  offset="0" style="stop-color:#3076A1"/>
					<stop  offset="1" style="stop-color:#639C38"/>
				</linearGradient>
				<path style="fill:url(#SVGID_00000149341647523127708150000004984216036247199106_);" d="M529.502,397.529
					c-0.027-1.176-0.597-28.851,4.58-33.509c5.286-4.758,6.302-13.165,6.437-17.753c0.177-5.978,7.899-9.527,8.228-9.675
					l0.392,0.868c-0.075,0.034-7.509,3.453-7.668,8.834c-0.17,5.79-1.479,13.689-6.752,18.434
					c-4.854,4.369-4.272,32.495-4.265,32.779L529.502,397.529z"/>
			</g>
			
				<linearGradient id="SVGID_00000049214640542099878750000017044108235621349813_" gradientUnits="userSpaceOnUse" x1="512.5821" y1="402.522" x2="548.9434" y2="402.522">
				<stop  offset="0" style="stop-color:#FF9340"/>
				<stop  offset="1" style="stop-color:#FFCE45"/>
			</linearGradient>
			<polygon style="fill:url(#SVGID_00000049214640542099878750000017044108235621349813_);" points="548.943,386.234 
				540.357,418.81 521.168,418.81 512.582,386.234 			"/>
			
				<linearGradient id="SVGID_00000089572702372547086860000011422373200005292189_" gradientUnits="userSpaceOnUse" x1="512.5821" y1="402.522" x2="548.9434" y2="402.522">
				<stop  offset="0" style="stop-color:#C97332"/>
				<stop  offset="1" style="stop-color:#FFCE45"/>
			</linearGradient>
			<path style="fill:url(#SVGID_00000089572702372547086860000011422373200005292189_);" d="M548.943,386.234
				c0,0-18.902,3.549-18.902,32.575h-8.873l-8.586-32.575H548.943z"/>
		</g>
		<g>
			<rect x="185.396" y="301.106" style="fill:#1487E3;" width="25.272" height="2.861"/>
		</g>
		<g>
			<polygon style="fill:#78C2FF;" points="180.12,222.155 139.785,222.155 139.785,170.573 140.738,170.573 140.738,221.202 
				180.12,221.202 			"/>
		</g>
		<g>
			<polygon style="fill:#78C2FF;" points="350.848,188.168 349.895,188.168 349.895,134.978 401.225,134.978 401.225,90.246 
				402.179,90.246 402.179,135.931 350.848,135.931 			"/>
		</g>
		<g>
			<polygon style="fill:#78C2FF;" points="516.671,247.417 463.264,247.417 463.264,246.463 515.717,246.463 515.717,215.452 
				516.671,215.452 			"/>
		</g>
		<g>
			<path style="fill:#FF7E55;" d="M117.386,290.515c0,0-1.144,16.046,1.991,17.967c1.964,1.203,9.795,5.261,9.563,6.022
				c-0.232,0.761-4.422,6.77-4.422,6.77s-15.042-9.905-15.527-13.026c-0.474-3.05,0.74-23.495,2.809-24.438
				c1.549-0.706,2.365-0.122,4.318,1.327C118.856,287.17,117.386,290.515,117.386,290.515z"/>
		</g>
		<g>
			<g>
				<g>
					<path style="fill:#424773;" d="M115.637,407.289c0,0-0.468,3.247-0.525,3.734c-0.059,0.487-5.204-0.287-5.204-0.287
						l-0.417-3.865C109.49,406.871,114.994,406.831,115.637,407.289z"/>
				</g>
			</g>
		</g>
		<g>
			<g>
				<g>
					<path style="fill:#292C47;" d="M115.166,410.61c0,0,1.629,1.957,3.206,2.81c1.577,0.853,4.054,1.19,4.987,2.074
						c0.672,0.637,2.451,3.379-4.098,3.324c-6.549-0.056-9.705,0.388-10.406-0.664c-0.702-1.052,1.015-7.764,1.015-7.764
						S111.421,410.948,115.166,410.61z"/>
				</g>
			</g>
		</g>
		<g>
			<g>
				<g>
					<path style="fill:#424773;" d="M141.387,407.289c0,0-0.469,3.247-0.527,3.734c-0.059,0.487-5.203-0.287-5.203-0.287
						l-0.416-3.865C135.24,406.871,140.744,406.831,141.387,407.289z"/>
				</g>
			</g>
		</g>
		<g>
			<g>
				<g>
					<path style="fill:#292C47;" d="M140.915,410.61c0,0,1.63,1.957,3.206,2.81c1.577,0.853,7.379,1.553,8.312,2.436
						c0.673,0.637,1.792,3.202-7.421,2.962c-6.547-0.171-9.705,0.388-10.408-0.664c-0.701-1.052,1.016-7.764,1.016-7.764
						S137.08,410.986,140.915,410.61z"/>
				</g>
			</g>
		</g>
		<g>
			<g>
				<g>
					<path style="fill:#292C47;" d="M117.483,323.861c0,0-4.834,7.682-4.474,14.624c0.36,6.943-0.431,14.36-1.157,21.612
						c-0.809,8.086-3.015,24.913-3.135,29.237c-0.121,4.326,0.157,20.601,0.157,20.601l8.386-0.063c0,0,2.977-32.878,4.42-36.293
						c1.441-3.415,7.363-28.115,7.604-30.847C129.523,340.002,117.483,323.861,117.483,323.861z"/>
				</g>
			</g>
		</g>
		<g>
			<g>
				<g>
					<path style="fill:#292C47;" d="M142.932,324.902c0,0,1.91,18.875,2.391,23.125c0.48,4.249,0.152,22.662,0.392,25.318
						c0.241,2.655-1.606,30.746-2.062,36.096l-9.217-0.059c0,0-0.636-22.724-0.636-33.764c0-11.041-2.833-23.893-6.079-31.178
						c-3.246-7.285-10.676-7.457-12.671-20.973C115.05,323.469,140.23,320.616,142.932,324.902z"/>
				</g>
			</g>
		</g>
		<g>
			<g>
				<g>
					<path style="fill:#EEA886;" d="M122.59,259.102c0,0,5.76-3.848,9.805,0.274c4.045,4.121,6.033,13.813,3.129,15.747
						c-2.905,1.934-7.833,2.442-10.172-0.183c-2.339-2.623-4.836-6.627-5.449-9.549C119.287,262.467,121.129,260.332,122.59,259.102
						z"/>
				</g>
			</g>
		</g>
		<g>
			<g>
				<g>
					<path style="fill:#EEA886;" d="M133.564,275.775c0,0-0.075,4.049,0.371,4.911c0.447,0.863-8.406,0.886-8.406,0.886
						s-0.719-4.694-2.082-8.66C122.085,268.945,133.564,275.775,133.564,275.775z"/>
				</g>
			</g>
		</g>
		<g>
			<g>
				<g>
					<path style="fill:#754836;" d="M123.67,272.847c0,0,0.825,0.841,3.163-0.111c2.339-0.953,4.538-4.882,5.468-5.474
						c0.932-0.594,0.8-1.191,0.8-1.191l0.854,0.777l1.093-0.187c0,0-1.663-2.657-0.459-4.184c1.203-1.527-3.741-8.99-10.887-4.434
						c0,0-5.591,3.058-4.572,6.407C120.149,267.8,121.932,271.469,123.67,272.847z"/>
				</g>
			</g>
		</g>
		<g>
			<g>
				<g>
					<path style="fill:#E2D2CA;" d="M134.461,280.583c0,0-0.027-1.648-0.775-1.807c-0.747-0.158-8.25-0.88-9.168-0.519v1.92
						C124.518,280.178,126.286,281.266,134.461,280.583z"/>
				</g>
			</g>
		</g>
		<g>
			<g>
				<g>
					<path style="fill:#EEA886;" d="M132.648,264.871c-0.27-0.539-2.105-1.827-2.25,0.049c-0.144,1.877,1.805,3.895,2.535,3.512
						C133.664,268.048,133.335,266.235,132.648,264.871z"/>
				</g>
			</g>
		</g>
		<g>
			<g>
				<g>
					<path style="fill:#754836;" d="M120.925,260.093c0,0-8.238,2.209,2.411,12.436L120.925,260.093z"/>
				</g>
			</g>
		</g>
		<g>
			<g>
				<path style="fill:#EEA886;" d="M194.525,303.892l-8.395-0.077c0.725-0.422,1.896-1.18,1.637-1.525
					c-0.37-0.492-2.747,0.589-3.713,0.688c-0.886,0.091-2.371-0.023-3.498,0.388l-2.651,1.13l2.431,2.249c0,0,4.391,0.63,5.676,0.72
					c2.09,0.147,8.484-2.342,8.59-2.72C194.793,304.063,194.525,303.892,194.525,303.892z"/>
			</g>
		</g>
		<g>
			<g>
				<g>
					<path style="fill:#FF7E55;" d="M145.42,282.868c-5.34-0.939-10.959-2.285-10.959-2.285l-9.943-0.406
						c0,0-9.125,2.009-12.719,3.633c-0.342,0.154-0.342,8.142-1.278,10.235l2.979,6.286c0,0,1.722,12.452,2.078,17.989
						c0.164,2.543-3.549,23.84-3.549,23.84s3.979,1.171,10.766,1.919c6.785,0.748,23.741-0.27,23.848-1.071
						c0.107-0.802-3.283-29.845-3.434-31.349c-0.23-2.309,0.666-12.975,0.666-12.975c1.279,1.717,8.672,8.159,12.28,10.206
						c2.567,1.456,8.864,0.566,10.719,0.378c4.015-0.411,15.104-1.204,15.321-1.599c0.173-0.236-0.638-4.28-1.102-4.435
						c-0.406-0.136-14.723-0.843-18.314-0.657c-1.457,0.077-6.21-5.231-6.21-5.231S148.365,284.191,145.42,282.868z"/>
				</g>
			</g>
		</g>
		<g>
			<polygon style="fill:#FFCB55;" points="84.272,242.676 110.554,242.676 110.554,261.725 110.554,265.736 106.541,261.725 
				84.272,261.725 			"/>
		</g>
		<g>
			<g>
				<g>
					<path style="fill:#6AAFE8;" d="M507.504,182.052h-25.535v-25.535h25.535V182.052z M482.82,181.2h23.832v-23.832H482.82V181.2z"
						/>
				</g>
				<g>
					<path style="fill:#6AAFE8;" d="M571.057,165.879h-58.445v-6.242h58.445V165.879z M513.461,165.028h56.744v-4.54h-56.744
						V165.028z"/>
				</g>
				<g>
					<path style="fill:#6AAFE8;" d="M571.057,194.907h-89.088v-6.242h89.088V194.907z M482.82,194.056h87.385v-4.54H482.82V194.056z
						"/>
				</g>
				<g>
					<path style="fill:#6AAFE8;" d="M538.713,206.895h-56.744v-6.242h56.744V206.895z M482.82,206.044h55.041v-4.54H482.82V206.044z
						"/>
				</g>
				<g>
					<path style="fill:#6AAFE8;" d="M552.19,177.787h-39.578v-6.242h39.578V177.787z M513.461,176.935h37.877v-4.54h-37.877V176.935
						z"/>
				</g>
			</g>
			<g>
				<path style="fill:#6AAFE8;" d="M581.2,220.469H471.826v-77.527H581.2V220.469z M472.678,219.618h107.671v-75.824H472.678
					V219.618z"/>
			</g>
		</g>
		<g>
			<polygon style="fill:#6AAFE8;" points="433.262,108.221 425.078,108.221 425.078,107.267 432.309,107.267 432.309,100.044 
				433.262,100.044 			"/>
		</g>
		<g>
			<polygon style="fill:#6AAFE8;" points="378.233,108.221 370.049,108.221 370.049,100.044 371.004,100.044 371.004,107.267 
				378.233,107.267 			"/>
		</g>
		<g>
			<polygon style="fill:#6AAFE8;" points="371.007,53.196 370.053,53.196 370.053,45.013 378.23,45.013 378.23,45.966 
				371.007,45.966 			"/>
		</g>
		<g>
			<polygon style="fill:#6AAFE8;" points="433.262,53.193 432.309,53.193 432.309,45.97 425.078,45.97 425.078,45.016 
				433.262,45.016 			"/>
		</g>
		<g>
			<rect x="432.309" y="65.413" style="fill:#6AAFE8;" width="0.953" height="22.412"/>
		</g>
		<g>
			<rect x="370.049" y="65.413" style="fill:#6AAFE8;" width="0.955" height="22.412"/>
		</g>
		<g>
			<path style="fill:#78C2FF;" d="M140.263,171.05c-1.933,0-3.503-1.571-3.503-3.503c0-1.931,1.57-3.502,3.503-3.502
				c1.931,0,3.502,1.571,3.502,3.502C143.765,169.479,142.193,171.05,140.263,171.05z M140.263,164.999
				c-1.406,0-2.55,1.144-2.55,2.549c0,1.405,1.144,2.549,2.55,2.549c1.405,0,2.548-1.144,2.548-2.549
				C142.811,166.142,141.668,164.999,140.263,164.999z"/>
		</g>
		<g>
			<path style="fill:#78C2FF;" d="M401.701,90.723c-1.931,0-3.502-1.572-3.502-3.503c0-1.931,1.571-3.502,3.502-3.502
				c1.932,0,3.503,1.571,3.503,3.502C405.204,89.151,403.633,90.723,401.701,90.723z M401.701,84.671
				c-1.404,0-2.549,1.144-2.549,2.549c0,1.406,1.144,2.549,2.549,2.549c1.406,0,2.549-1.143,2.549-2.549
				C404.25,85.815,403.108,84.671,401.701,84.671z"/>
		</g>
		<g>
			<path style="fill:#78C2FF;" d="M516.194,216.094c-1.931,0-3.503-1.572-3.503-3.503c0-1.931,1.572-3.502,3.503-3.502
				c1.931,0,3.502,1.571,3.502,3.502C519.696,214.522,518.125,216.094,516.194,216.094z M516.194,210.042
				c-1.405,0-2.55,1.144-2.55,2.549c0,1.405,1.144,2.549,2.55,2.549c1.405,0,2.549-1.144,2.549-2.549
				C518.743,211.186,517.6,210.042,516.194,210.042z"/>
		</g>
		<g>
			<path style="fill:#A1D4FF;" d="M163.493,73.79h-24.042V49.747h24.042V73.79z M140.404,72.836h22.135V50.701h-22.135V72.836z"/>
		</g>
		<g>
			<rect x="150.995" y="56.3" style="fill:#A1D4FF;" width="0.953" height="11.207"/>
		</g>
		<g>
			<rect x="145.869" y="61.426" style="fill:#A1D4FF;" width="11.205" height="0.954"/>
		</g>
		<g>
			<path style="fill:#A1D4FF;" d="M529.877,102.792H495.51V78.259h34.367V102.792z M496.465,101.838h32.458V79.212h-32.458V101.838z
				"/>
		</g>
		<g>
			<polygon style="fill:#A1D4FF;" points="512.693,93.118 495.685,79.104 496.291,78.368 512.693,91.883 529.098,78.368 
				529.703,79.104 			"/>
		</g>
		<g>
			
				<rect x="522.756" y="86.851" transform="matrix(0.7255 -0.6882 0.6882 0.7255 77.6716 386.3778)" style="fill:#A1D4FF;" width="0.953" height="17.924"/>
		</g>
		<g>
			
				<rect x="493.193" y="95.336" transform="matrix(0.6877 -0.726 0.726 0.6877 87.2808 394.5086)" style="fill:#A1D4FF;" width="17.923" height="0.954"/>
		</g>
		<g>
			<path style="fill:#A1D4FF;" d="M223.486,127.437l-0.357-0.935c-0.32-0.042-0.635-0.114-0.94-0.216l-0.73,0.685l-2.117-1.507
				l0.408-0.914c-0.197-0.255-0.368-0.529-0.513-0.818l-1.001-0.032l-0.431-2.563l0.935-0.358c0.041-0.321,0.114-0.635,0.216-0.94
				l-0.685-0.729l1.507-2.118l0.913,0.408c0.256-0.196,0.529-0.368,0.818-0.512l0.031-1.001l2.563-0.431l0.358,0.934
				c0.319,0.042,0.636,0.114,0.94,0.216l0.73-0.685l2.117,1.507l-0.408,0.914c0.196,0.255,0.367,0.529,0.512,0.818l1.001,0.031
				l0.431,2.563l-0.934,0.358c-0.043,0.32-0.115,0.635-0.217,0.941l0.686,0.729l-1.508,2.118l-0.913-0.408
				c-0.255,0.196-0.528,0.368-0.817,0.512l-0.032,1.001L223.486,127.437z M222.021,125.462l0.209,0.08
				c0.379,0.145,0.777,0.236,1.186,0.271l0.223,0.019l0.307,0.801l1.408-0.237l0.027-0.858l0.205-0.092
				c0.373-0.167,0.719-0.383,1.029-0.645l0.172-0.145l0.783,0.35l0.827-1.163l-0.587-0.625l0.08-0.21
				c0.146-0.378,0.236-0.777,0.272-1.185l0.02-0.223l0.8-0.306l-0.236-1.408l-0.857-0.027l-0.092-0.205
				c-0.166-0.372-0.383-0.719-0.645-1.03l-0.145-0.171l0.35-0.782l-1.162-0.828l-0.626,0.587l-0.209-0.08
				c-0.38-0.146-0.778-0.236-1.185-0.271l-0.223-0.02l-0.308-0.801l-1.407,0.237l-0.027,0.857l-0.205,0.092
				c-0.373,0.166-0.72,0.383-1.031,0.645l-0.17,0.144l-0.783-0.349l-0.828,1.163l0.587,0.625l-0.081,0.209
				c-0.145,0.378-0.236,0.777-0.271,1.185l-0.02,0.223l-0.801,0.307l0.238,1.408l0.857,0.028l0.091,0.204
				c0.166,0.373,0.384,0.72,0.646,1.031l0.144,0.171l-0.349,0.783l1.162,0.828L222.021,125.462z M223.789,124.273
				c-0.582,0-1.148-0.18-1.632-0.524c-1.27-0.903-1.567-2.671-0.664-3.94c0.903-1.27,2.672-1.567,3.94-0.664
				c0.615,0.437,1.023,1.088,1.148,1.833c0.125,0.744-0.047,1.493-0.484,2.107c-0.438,0.615-1.088,1.023-1.833,1.148
				C224.107,124.26,223.947,124.273,223.789,124.273z M223.799,119.337c-0.66,0-1.311,0.309-1.723,0.886
				c-0.327,0.459-0.455,1.018-0.361,1.574c0.094,0.556,0.398,1.042,0.857,1.369l0,0c0.459,0.327,1.018,0.455,1.574,0.362
				c0.555-0.094,1.042-0.398,1.368-0.858c0.327-0.459,0.456-1.018,0.362-1.574c-0.094-0.556-0.398-1.042-0.857-1.369
				C224.648,119.464,224.222,119.337,223.799,119.337z"/>
		</g>
		<g>
			<path style="fill:#A1D4FF;" d="M203.633,130.426l-0.799-2.086c-0.856-0.096-1.697-0.288-2.506-0.574l-1.627,1.527l-4.421-3.146
				l0.91-2.038c-0.534-0.671-0.992-1.402-1.363-2.18l-2.232-0.07l-0.901-5.35l2.086-0.798c0.096-0.856,0.289-1.697,0.574-2.506
				l-1.527-1.627l3.145-4.42l2.039,0.91c0.671-0.535,1.402-0.992,2.18-1.364l0.07-2.232l5.35-0.901l0.799,2.086
				c0.855,0.097,1.695,0.289,2.506,0.575l1.627-1.528l4.42,3.146l-0.91,2.038c0.535,0.671,0.992,1.402,1.364,2.18l2.231,0.07
				l0.902,5.35l-2.086,0.798c-0.097,0.857-0.289,1.697-0.575,2.506l1.528,1.627l-3.146,4.421l-2.037-0.91
				c-0.671,0.535-1.402,0.992-2.18,1.364l-0.07,2.232L203.633,130.426z M200.108,126.665l0.279,0.107
				c0.906,0.347,1.857,0.565,2.828,0.648l0.298,0.026l0.732,1.911l3.81-0.642l0.064-2.045l0.273-0.122
				c0.891-0.397,1.719-0.915,2.46-1.539l0.229-0.192l1.867,0.833l2.239-3.147l-1.398-1.491l0.106-0.279
				c0.347-0.905,0.565-1.857,0.648-2.828l0.025-0.298l1.911-0.731l-0.643-3.81l-2.045-0.064l-0.121-0.273
				c-0.397-0.891-0.916-1.718-1.539-2.459l-0.192-0.229l0.833-1.866l-3.146-2.24l-1.491,1.398l-0.278-0.107
				c-0.906-0.346-1.857-0.564-2.828-0.648l-0.299-0.025l-0.73-1.911l-3.81,0.642l-0.065,2.045l-0.272,0.122
				c-0.89,0.397-1.718,0.914-2.46,1.539l-0.229,0.192l-1.866-0.833l-2.239,3.147l1.398,1.491l-0.107,0.279
				c-0.347,0.905-0.564,1.857-0.648,2.828l-0.025,0.298l-1.91,0.731l0.642,3.81l2.045,0.064l0.121,0.273
				c0.398,0.89,0.915,1.718,1.54,2.46l0.191,0.229l-0.833,1.866l3.147,2.24L200.108,126.665z M204.112,123.167
				c-1.237,0-2.486-0.371-3.569-1.141c-2.771-1.973-3.422-5.833-1.449-8.606c1.973-2.771,5.832-3.422,8.604-1.449
				c2.773,1.973,3.423,5.833,1.45,8.604C207.946,122.266,206.043,123.167,204.112,123.167z M204.128,111.784
				c-1.632,0-3.241,0.762-4.257,2.19c-0.809,1.136-1.126,2.518-0.895,3.892c0.232,1.374,0.984,2.576,2.119,3.383
				c2.344,1.668,5.607,1.118,7.275-1.226c0.808-1.135,1.125-2.517,0.895-3.891c-0.232-1.374-0.984-2.576-2.12-3.384
				C206.23,112.097,205.174,111.784,204.128,111.784z"/>
		</g>
		<g>
			<g>
				<g>
					<path style="fill:#78C2FF;" d="M78.836,135.443c-9.811,0-17.793-7.983-17.793-17.794h0.953c0,9.286,7.555,16.839,16.84,16.839
						c9.285,0,16.84-7.554,16.84-16.839c0-9.285-7.555-16.839-16.84-16.839v-0.954c9.811,0,17.793,7.982,17.793,17.793
						C96.629,127.461,88.647,135.443,78.836,135.443z M78.836,132.97c-8.447,0-15.318-6.872-15.318-15.32
						c0-8.447,6.871-15.319,15.318-15.319s15.319,6.872,15.319,15.319h-0.954c0-7.921-6.444-14.365-14.365-14.365
						c-7.922,0-14.365,6.444-14.365,14.365c0,7.921,6.443,14.366,14.365,14.366V132.97z"/>
				</g>
			</g>
		</g>
		<g>
			<polygon style="fill:#78C2FF;" points="76.656,123.545 70.238,117.127 70.913,116.453 76.656,122.196 86.76,112.093 
				87.434,112.767 			"/>
		</g>
		
			<linearGradient id="SVGID_00000154413744258196448280000016419175512952925338_" gradientUnits="userSpaceOnUse" x1="319.4283" y1="325.123" x2="319.4283" y2="491.6994">
			<stop  offset="0" style="stop-color:#40D5E6"/>
			<stop  offset="1" style="stop-color:#5577FF"/>
		</linearGradient>
		<polygon style="fill:url(#SVGID_00000154413744258196448280000016419175512952925338_);" points="454.59,335.812 319.428,335.812 
			184.268,335.812 154.686,446.379 320.315,446.379 484.171,446.379 		"/>
		<path style="fill:#FFFFFF;" d="M194.494,355.21h16.608c0.694,0,1.218,0.54,1.088,1.122l-1.608,7.225
			c-0.1,0.445-0.557,0.768-1.088,0.768h-16.893c-0.709,0-1.236-0.561-1.081-1.151l1.893-7.224
			C193.525,355.518,193.975,355.21,194.494,355.21z"/>
		<polygon style="fill:#FFFFFF;" points="218.719,355.21 231.273,355.21 229.604,364.324 216.809,364.324 		"/>
		<polygon style="fill:#FFFFFF;" points="237.553,355.21 250.108,355.21 248.795,364.324 235.998,364.337 		"/>
		<polygon style="fill:#FFFFFF;" points="256.386,355.21 268.941,355.21 267.986,364.324 255.192,364.324 		"/>
		<polygon style="fill:#FFFFFF;" points="275.22,355.21 287.775,355.21 287.178,364.324 274.384,364.324 		"/>
		<polygon style="fill:#FFFFFF;" points="294.053,355.21 306.609,355.21 306.371,364.324 293.575,364.337 		"/>
		<polygon style="fill:#FFFFFF;" points="444.766,355.21 425.932,355.21 427.961,364.324 447.152,364.324 		"/>
		<polygon style="fill:#FFFFFF;" points="419.653,355.21 407.098,355.21 408.77,364.324 421.564,364.324 		"/>
		<polygon style="fill:#FFFFFF;" points="400.82,355.21 388.264,355.21 389.576,364.324 402.373,364.337 		"/>
		<polygon style="fill:#FFFFFF;" points="381.986,355.21 369.43,355.21 370.385,364.324 383.18,364.324 		"/>
		<polygon style="fill:#FFFFFF;" points="363.152,355.21 350.596,355.21 351.193,364.324 363.987,364.324 		"/>
		<polygon style="fill:#FFFFFF;" points="344.318,355.21 331.762,355.21 332.002,364.324 344.797,364.337 		"/>
		<polygon style="fill:#FFFFFF;" points="312.887,355.21 325.443,355.21 325.65,364.324 312.887,364.324 		"/>
		<polygon style="fill:#FFFFFF;" points="188.97,371.115 215.207,371.115 213.712,380.518 186.978,380.518 		"/>
		<polygon style="fill:#FFFFFF;" points="448.861,371.115 416.43,371.115 418.277,380.518 451.324,380.518 		"/>
		<polygon style="fill:#FFFFFF;" points="409.943,371.115 396.972,371.115 398.449,380.518 411.668,380.518 		"/>
		<polygon style="fill:#FFFFFF;" points="390.485,371.115 377.513,371.115 378.621,380.518 391.84,380.518 		"/>
		<polygon style="fill:#FFFFFF;" points="371.027,371.115 358.055,371.115 358.793,380.518 372.012,380.518 		"/>
		<polygon style="fill:#FFFFFF;" points="351.568,371.115 338.596,371.115 338.965,380.518 352.184,380.518 		"/>
		<polygon style="fill:#FFFFFF;" points="185.051,387.875 211.873,387.875 209.916,397.214 182.604,397.214 		"/>
		<polygon style="fill:#FFFFFF;" points="218.579,387.875 231.99,387.875 230.4,397.214 216.744,397.214 		"/>
		<polygon style="fill:#FFFFFF;" points="238.696,387.875 252.108,387.875 339.275,387.875 339.648,397.214 237.229,397.214 		"/>
		<polygon style="fill:#FFFFFF;" points="345.988,387.875 359.398,387.875 360.133,397.214 346.477,397.214 		"/>
		<polygon style="fill:#FFFFFF;" points="366.105,387.875 379.517,387.875 380.617,397.214 366.961,397.214 		"/>
		<polygon style="fill:#FFFFFF;" points="386.223,387.875 399.633,387.875 401.102,397.214 387.445,397.214 		"/>
		<polygon style="fill:#FFFFFF;" points="406.34,387.875 419.751,387.875 421.586,397.214 407.93,397.214 		"/>
		<polygon style="fill:#FFFFFF;" points="426.457,387.875 453.279,387.875 455.726,397.214 428.414,397.214 		"/>
		<polygon style="fill:#FFFFFF;" points="332.137,371.115 319.27,371.115 319.27,380.518 332.384,380.518 		"/>
		<polygon style="fill:#FFFFFF;" points="312.679,371.115 299.706,371.115 299.336,380.518 312.555,380.518 		"/>
		<polygon style="fill:#FFFFFF;" points="293.22,371.115 280.248,371.115 279.509,380.518 292.728,380.518 		"/>
		<polygon style="fill:#FFFFFF;" points="273.762,371.115 260.789,371.115 259.68,380.518 272.9,380.518 		"/>
		<polygon style="fill:#FFFFFF;" points="254.303,371.115 241.33,371.115 239.852,380.518 253.07,380.518 		"/>
		<polygon style="fill:#FFFFFF;" points="234.844,371.115 221.871,371.115 220.025,380.518 233.243,380.518 		"/>
		<polygon style="fill:#FFFFFF;" points="195.108,349.482 197.238,341.345 203.335,341.345 201.346,349.482 		"/>
		<polygon style="fill:#FFFFFF;" points="209.432,341.345 221.623,341.345 219.918,349.482 207.513,349.482 		"/>
		<polygon style="fill:#FFFFFF;" points="227.721,341.345 239.912,341.345 238.527,349.482 226.121,349.482 		"/>
		<polygon style="fill:#FFFFFF;" points="246.01,341.345 258.201,341.345 257.136,349.482 244.73,349.482 		"/>
		<polygon style="fill:#FFFFFF;" points="264.298,341.345 276.49,341.345 275.744,349.482 263.339,349.482 		"/>
		<polygon style="fill:#FFFFFF;" points="282.587,341.345 294.779,341.345 294.354,349.482 281.947,349.482 		"/>
		<polygon style="fill:#FFFFFF;" points="300.876,341.345 313.068,341.345 312.962,349.482 300.557,349.482 		"/>
		<polygon style="fill:#FFFFFF;" points="319.164,341.345 331.358,341.345 331.57,349.482 319.164,349.482 		"/>
		<polygon style="fill:#FFFFFF;" points="337.453,341.345 349.647,341.345 350.18,349.482 337.773,349.482 		"/>
		<polygon style="fill:#FFFFFF;" points="355.742,341.345 367.936,341.345 368.788,349.482 356.383,349.482 		"/>
		<polygon style="fill:#FFFFFF;" points="374.031,341.345 386.225,341.345 387.397,349.482 374.99,349.482 		"/>
		<polygon style="fill:#FFFFFF;" points="392.32,341.345 404.514,341.345 406.006,349.482 393.6,349.482 		"/>
		<polygon style="fill:#FFFFFF;" points="410.609,341.345 422.802,341.345 424.614,349.482 412.209,349.482 		"/>
		<polygon style="fill:#FFFFFF;" points="428.898,341.345 441.091,341.345 443.223,349.482 430.816,349.482 		"/>
		
			<linearGradient id="SVGID_00000156548680154378744630000006959953782030064826_" gradientUnits="userSpaceOnUse" x1="1.9741" y1="450.6831" x2="331.4594" y2="450.6831">
			<stop  offset="0" style="stop-color:#40D5E6"/>
			<stop  offset="1" style="stop-color:#5577FF"/>
		</linearGradient>
		<path style="fill:url(#SVGID_00000156548680154378744630000006959953782030064826_);" d="M475.563,454.987h-312.27
			c-4.754,0-8.607-3.854-8.607-8.608l0,0h329.485l0,0C484.171,451.133,480.316,454.987,475.563,454.987z"/>
		<path style="fill:#4D78EB;" d="M357.73,410.65c-0.322-1.947-2.005-3.374-3.979-3.374h-34.324h-34.324
			c-1.973,0-3.655,1.427-3.977,3.374l-4.289,25.952c-0.406,2.456,1.488,4.688,3.977,4.688h38.613h38.613
			c2.489,0,4.384-2.232,3.979-4.688L357.73,410.65z"/>
		<g>
			<g>
				<rect x="210.668" y="187.309" style="fill:#E0E0E0;" width="27.943" height="2.861"/>
			</g>
			<g>
				<rect x="246.432" y="208.853" style="fill:#E0E0E0;" width="20.175" height="2.861"/>
			</g>
			<g>
				<rect x="269.749" y="208.853" style="fill:#1487E3;" width="13.388" height="2.861"/>
			</g>
			<g>
				<rect x="210.985" y="263.03" style="fill:#1487E3;" width="13.388" height="2.861"/>
			</g>
			<g>
				<rect x="285.783" y="208.853" style="fill:#E0E0E0;" width="32.324" height="2.861"/>
			</g>
			<g>
				<rect x="210.985" y="252.179" style="fill:#E0E0E0;" width="20.771" height="2.861"/>
			</g>
			<g>
				<rect x="239.939" y="273.803" style="fill:#E0E0E0;" width="12.68" height="2.86"/>
			</g>
			<g>
				<rect x="210.985" y="273.803" style="fill:#1487E3;" width="25.122" height="2.86"/>
			</g>
			<g>
				<rect x="210.985" y="284.574" style="fill:#E0E0E0;" width="13.856" height="2.861"/>
			</g>
			<g>
				<rect x="244.047" y="187.309" style="fill:#78C2FF;" width="19.837" height="2.861"/>
			</g>
			<g>
				<rect x="244.047" y="219.625" style="fill:#1487E3;" width="19.837" height="2.861"/>
			</g>
			<g>
				<rect x="234.129" y="230.397" style="fill:#E0E0E0;" width="8.476" height="2.861"/>
			</g>
			<g>
				<rect x="225.653" y="241.328" style="fill:#78C2FF;" width="19.038" height="2.861"/>
			</g>
			<g>
				<rect x="247.568" y="241.328" style="fill:#1487E3;" width="26.281" height="2.861"/>
			</g>
			<g>
				<rect x="210.985" y="230.476" style="fill:#1487E3;" width="19.837" height="2.861"/>
			</g>
			<g>
				<rect x="210.985" y="241.328" style="fill:#1487E3;" width="11.77" height="2.861"/>
			</g>
			<g>
				<rect x="246.601" y="230.476" style="fill:#FF8761;" width="11.104" height="2.861"/>
			</g>
			<g>
				<rect x="211.318" y="295.347" style="fill:#FF8761;" width="11.103" height="2.86"/>
			</g>
			<g>
				<rect x="210.906" y="208.853" style="fill:#78C2FF;" width="19.836" height="2.861"/>
			</g>
			<g>
				<rect x="228.448" y="263.03" style="fill:#78C2FF;" width="19.837" height="2.861"/>
			</g>
			<g>
				<rect x="228.693" y="284.574" style="fill:#78C2FF;" width="19.836" height="2.861"/>
			</g>
			<g>
				<rect x="263.932" y="284.574" style="fill:#78C2FF;" width="19.836" height="2.861"/>
			</g>
			<g>
				<rect x="210.906" y="219.625" style="fill:#78C2FF;" width="28.277" height="2.861"/>
			</g>
			<g>
				<rect x="343.414" y="187.309" style="fill:#78C2FF;" width="19.836" height="2.861"/>
			</g>
			<g>
				<rect x="272.748" y="295.347" style="fill:#78C2FF;" width="19.837" height="2.86"/>
			</g>
			<g>
				<rect x="369.422" y="187.309" style="fill:#78C2FF;" width="13.279" height="2.861"/>
			</g>
			<g>
				<rect x="414.348" y="198.081" style="fill:#78C2FF;" width="13.278" height="2.861"/>
			</g>
			<g>
				<rect x="269.225" y="187.309" style="fill:#1487E3;" width="25.273" height="2.861"/>
			</g>
			<g>
				<rect x="367.695" y="198.081" style="fill:#1487E3;" width="25.272" height="2.861"/>
			</g>
			<g>
				<rect x="336.699" y="208.853" style="fill:#1487E3;" width="25.273" height="2.861"/>
			</g>
			<g>
				<rect x="303.796" y="219.625" style="fill:#1487E3;" width="25.272" height="2.861"/>
			</g>
			<g>
				<rect x="365.152" y="208.853" style="fill:#78C2FF;" width="17.966" height="2.861"/>
			</g>
			<g>
				<rect x="313.19" y="187.309" style="fill:#FF8761;" width="25.272" height="2.861"/>
			</g>
			<g>
				<rect x="284.352" y="219.625" style="fill:#FF8761;" width="14.818" height="2.861"/>
			</g>
			<g>
				<rect x="272.748" y="263.19" style="fill:#FF8761;" width="14.818" height="2.861"/>
			</g>
			<g>
				<rect x="299.17" y="187.309" style="fill:#E0E0E0;" width="9.252" height="2.861"/>
			</g>
			<g>
				<rect x="269.225" y="219.625" style="fill:#E0E0E0;" width="9.25" height="2.861"/>
			</g>
			<g>
				<rect x="399.063" y="198.081" style="fill:#E0E0E0;" width="9.252" height="2.861"/>
			</g>
			<g>
				<rect x="210.668" y="198.081" style="fill:#1487E3;" width="14.473" height="2.861"/>
			</g>
			<g>
				<rect x="249.283" y="252.258" style="fill:#1487E3;" width="11.426" height="2.861"/>
			</g>
			<g>
				<rect x="228.693" y="198.081" style="fill:#1487E3;" width="4.672" height="2.861"/>
			</g>
			<g>
				<rect x="324.626" y="198.081" style="fill:#E0E0E0;" width="38.624" height="2.861"/>
			</g>
			<g>
				<rect x="287.566" y="284.574" style="fill:#E0E0E0;" width="38.625" height="2.861"/>
			</g>
			<g>
				<rect x="236.8" y="198.081" style="fill:#FF8761;" width="4.767" height="2.861"/>
			</g>
			<g>
				<rect x="308.422" y="198.081" style="fill:#1487E3;" width="12.636" height="2.861"/>
			</g>
			<g>
				<rect x="321.058" y="208.853" style="fill:#FF8761;" width="12.637" height="2.861"/>
			</g>
			<g>
				<rect x="256.08" y="295.347" style="fill:#FF8761;" width="12.637" height="2.86"/>
			</g>
			<g>
				<rect x="278.19" y="198.081" style="fill:#1487E3;" width="26.887" height="2.861"/>
			</g>
			<g>
				<rect x="253.163" y="263.19" style="fill:#1487E3;" width="15.708" height="2.861"/>
			</g>
			<g>
				<rect x="252.152" y="284.574" style="fill:#1487E3;" width="7.855" height="2.861"/>
			</g>
			<g>
				<rect x="265.123" y="198.081" style="fill:#78C2FF;" width="9.252" height="2.861"/>
			</g>
			<g>
				<rect x="233.986" y="208.853" style="fill:#FF8761;" width="9.25" height="2.861"/>
			</g>
			<g>
				<rect x="235.83" y="252.258" style="fill:#FF8761;" width="9.25" height="2.861"/>
			</g>
			<g>
				<rect x="245.478" y="198.081" style="fill:#1487E3;" width="16.118" height="2.861"/>
			</g>
		</g>
		<g style="opacity:0.76;">
			<path style="fill:#FFFFFF;" d="M481.479,312.26H364.595c-2.217,0-4.014-1.798-4.014-4.015v-81.026
				c0-2.217,1.797-4.015,4.014-4.015h116.884c2.217,0,4.015,1.797,4.015,4.015v81.026
				C485.493,310.462,483.695,312.26,481.479,312.26z"/>
		</g>
		<g>
			<g>
				<path style="fill:#4AAFFF;" d="M472.004,275.225h-20.125c-0.852,0-1.541-0.689-1.541-1.539v-3.108c0-0.85,0.689-1.54,1.541-1.54
					h20.125c0.852,0,1.541,0.69,1.541,1.54v3.108C473.545,274.535,472.855,275.225,472.004,275.225z"/>
			</g>
		</g>
		<g>
			<g>
				<path style="fill:#4AAFFF;" d="M472.004,286.811h-20.125c-0.852,0-1.541-0.688-1.541-1.539v-3.108
					c0-0.851,0.689-1.54,1.541-1.54h20.125c0.852,0,1.541,0.69,1.541,1.54v3.108C473.545,286.122,472.855,286.811,472.004,286.811z"
					/>
			</g>
		</g>
		<g>
			<g>
				<path style="fill:#4AAFFF;" d="M472.004,298.398h-20.125c-0.852,0-1.541-0.69-1.541-1.54v-3.107
					c0-0.852,0.689-1.541,1.541-1.541h20.125c0.852,0,1.541,0.689,1.541,1.541v3.107
					C473.545,297.708,472.855,298.398,472.004,298.398z"/>
			</g>
		</g>
		<g>
			<g>
				<g>
					<path style="fill:#4AAFFF;" d="M439.118,255.234c-5.162-14.434-18.956-23.299-33.495-22.861
						c-3.52,0.106-7.082,0.756-10.578,2.006c-10.59,3.789-18.184,12.223-21.304,22.189c-2.162,6.906-2.176,14.547,0.449,21.887
						c0.261,0.73,0.544,1.447,0.849,2.149c1.381,3.179,3.193,6.055,5.345,8.582c9.022,10.607,23.993,15.09,37.882,10.124
						C436.195,292.897,445.531,273.164,439.118,255.234z M415.359,291.185c-10.413,3.725-21.637,0.363-28.401-7.589
						c-1.612-1.895-2.972-4.051-4.006-6.435c-0.228-0.525-0.441-1.065-0.638-1.611c-1.968-5.503-1.957-11.232-0.336-16.408
						c2.339-7.473,8.031-13.797,15.971-16.636c2.621-0.938,5.293-1.425,7.932-1.506c10.899-0.329,21.242,6.318,25.113,17.14
						C435.803,271.582,428.802,286.377,415.359,291.185z"/>
				</g>
			</g>
			<g>
				<g>
					<path style="fill:#1A598C;" d="M381.979,259.141l-8.237-2.572c3.12-9.966,10.714-18.4,21.304-22.189
						c3.496-1.25,7.059-1.901,10.578-2.006l0.258,8.626c-2.639,0.081-5.31,0.568-7.932,1.506
						C390.01,245.343,384.317,251.668,381.979,259.141z"/>
				</g>
			</g>
			<g>
				<g>
					<path style="fill:#2273B5;" d="M382.952,277.16l-7.913,3.444c-0.305-0.702-0.588-1.419-0.849-2.149
						c-2.625-7.34-2.611-14.98-0.449-21.887l8.237,2.572c-1.621,5.176-1.632,10.905,0.336,16.408
						C382.511,276.096,382.724,276.635,382.952,277.16z"/>
				</g>
			</g>
			<g>
				<g>
					<path style="fill:#3788CC;" d="M380.384,289.187c-2.151-2.527-3.964-5.403-5.345-8.582l7.913-3.444
						c1.034,2.385,2.394,4.541,4.006,6.435L380.384,289.187z"/>
				</g>
			</g>
		</g>
		<g>
			<g>
				<g>
					<path style="fill:#EEA886;" d="M418.164,287.294c0,0-1.67-2.923,0.978-10.756c2.561-7.575,11.429-6.889,14.246-2.035
						c2.818,4.853,1.867,7.868-2.282,13.347C426.957,293.33,419.886,289.799,418.164,287.294z"/>
				</g>
			</g>
			<g>
				<g>
					<path style="fill:#EEA886;" d="M438.76,422.057c0,0,0.439,3.217,0.494,3.701c0.054,0.482,4.881-0.285,4.881-0.285l0.391-3.83
						C444.525,421.643,439.363,421.604,438.76,422.057z"/>
				</g>
			</g>
			<g>
				<g>
					<path style="fill:#414773;" d="M439.201,425.349c0,0-1.529,1.939-3.008,2.782c-1.479,0.846-3.803,1.18-4.678,2.055
						c-0.631,0.631-2.299,3.35,3.844,3.294c6.143-0.054,9.104,0.385,9.762-0.657c0.658-1.043-0.951-7.691-0.951-7.691
						S442.666,425.555,439.201,425.349z"/>
				</g>
			</g>
			<g>
				<g>
					<path style="fill:#EEA886;" d="M405.342,422.057c0,0,0.439,3.217,0.494,3.701c0.055,0.482,4.881-0.285,4.881-0.285l0.391-3.83
						C411.108,421.643,405.945,421.604,405.342,422.057z"/>
				</g>
			</g>
			<g>
				<g>
					<path style="fill:#414773;" d="M405.785,425.349c0,0-1.529,1.939-3.009,2.782c-1.479,0.846-6.922,1.539-7.796,2.414
						c-0.632,0.632-1.682,3.173,6.961,2.935c6.141-0.169,9.104,0.385,9.763-0.657c0.658-1.043-0.952-7.691-0.952-7.691
						S408.844,425.47,405.785,425.349z"/>
				</g>
			</g>
			<g>
				<g>
					<path style="fill:#2D314F;" d="M437.135,341.959c0,0,2.475,7.689,2.148,14.316c-0.326,6.627,1.279,13.879,1.935,20.802
						c0.732,7.717,3.727,25.987,3.834,30.116c0.109,4.127-0.464,17.31-0.464,17.31l-5.994,0.144c0,0-5.033-31.941-6.337-35.199
						c-1.304-3.259-7.77-26.494-7.986-29.102C424.055,357.739,437.135,341.959,437.135,341.959z"/>
				</g>
			</g>
			<g>
				<g>
					<path style="fill:#2D314F;" d="M412.285,341.158c0,0-3.639,20.332-4.074,24.389c-0.434,4.056-0.725,19.628-0.941,22.163
						c-0.217,2.534-1.448,33.172-2.607,36.938h6.684c0,0,6.861-22.272,6.861-32.81c0-10.538,4.543-22.909,7.477-29.861
						c2.934-6.953,9.647-7.117,11.451-20.018C437.135,341.959,414.726,337.067,412.285,341.158z"/>
				</g>
			</g>
			<g>
				<g>
					<path style="fill:#EEA886;" d="M420.588,289.361c0,0,0.754,2.194,0,3.761c-0.754,1.564,9.631,0.626,9.631,0.626
						s-0.47-3.236,0.888-5.898C432.463,285.189,420.588,289.361,420.588,289.361z"/>
				</g>
			</g>
			<g>
				<g>
					<path style="fill:#2B3B57;" d="M437.616,343.635c0,0-3.735,3.837-25.666-0.598l0.335-1.879l24.931,0.94L437.616,343.635z"/>
				</g>
			</g>
			<g>
				<g>
					<path style="fill:#EEA886;" d="M419.016,293.63c0,0-3.836,0.391-4.932,0.601c-1.096,0.208-8.473-1.32-9.986-1.477
						c-1.514-0.156-7.967-4.577-8.176-5.1c-0.208-0.522-3.926-9.934-4.135-11.969c-0.209-2.037-3.621-0.985-3.328,0.417
						c0.547,2.624,1.25,8.992,1.636,10.839c0.416,1.993,1.53,6.507,2.157,7.063c0.626,0.556,6.437,4.975,12.125,6.854
						c5.69,1.879,9.971,4.645,9.971,4.645h28.035c0,0,10.904-15.587,11.139-17.935c0.234-2.349-7.616-17.957-9.182-19.915
						c-1.566-1.957-3.83,0.639-3.83,0.639s4.691,13.766,5.316,15.723c0.627,1.957-5.456,10.556-7.127,10.582
						c-1.67,0.026-5.957-0.522-7.862-0.601c-1.905-0.079-3.915-0.914-3.915-0.914L419.016,293.63z"/>
				</g>
			</g>
			<g>
				<g>
					<path style="fill:#FFC655;" d="M406.934,304.041c0,0,3.433,2.282,3.746,6.195c0.313,3.915,1.565,10.099,2.191,12.212
						c0.627,2.114-0.548,17.457-0.705,18.553c-0.156,1.097,21.694,3.7,25.05,1.097c0,0,0.939-14.326,1.331-18.397
						c0.392-4.07,2.27-13.934,2.897-15.265c0.626-1.331,8.219-11.981,8.532-13.386c0,0-3.929-6.263-6.746-6.341
						c0,0-4.475,5.245-5.935,5.48c-1.46,0.234-10.404-1.404-10.406-1.418c0,0-0.977,1.33-6.166-0.236c0,0-6.182,0.697-7.186,0.825
						c-1.218,0.156-9.681-1.062-9.681-1.062s-3.396,5.734-2.801,8.628L406.934,304.041z"/>
				</g>
			</g>
			<g>
				<g>
					<path style="fill:#EEA886;" d="M391.983,276.908c0,0-0.767-3.628,0.157-4.67c0.525-0.593,1.787-2.163,1.902-2.394
						c0.115-0.23,1.471-1.01,1.471-1.385s-1.326-0.836-2.48,0.231c-1.153,1.066-1.874,1.298-2.335,1.182
						c-0.463-0.115-1.125-3.95-1.183-4.901c-0.058-0.952-0.425-3.461-1.021-3.287c-0.595,0.173-0.565,1.269-0.565,1.269
						s-0.692-1.904-1.153-1.528c-0.462,0.374-0.404,1.298-0.404,1.298s-0.865-1.067-1.096-0.289c-0.23,0.779,0,1.471,0,1.471
						s-0.895-0.49-0.951,0.721c-0.059,1.211,0.26,4.758,0.894,6.027c0.634,1.269,3.009,4.587,3.292,5.883
						C388.795,277.832,391.983,276.908,391.983,276.908z"/>
				</g>
			</g>
			<g>
				<g>
					<path style="fill:#EEA886;" d="M441.273,270.537c0,0-2.608-4.385-3.496-4.776c-0.887-0.392-2.139-0.613-3.235-1.396
						c-1.096-0.782-2.544-1.435-2.466-1.695c0.078-0.261,1.37-0.157,2.753,0.443c1.384,0.6,1.989,0.31,2.12-0.003
						c0.131-0.314-0.736-2.524-1.154-3.046c-0.418-0.523-3.393-3.515-2.896-3.958c0.496-0.443,2.427,1.201,2.74,1.539
						c0,0-1.54-3.234-0.939-3.392c0.6-0.157,1.722,0.991,1.722,0.991s-0.13-2.766,2.845,1.723c0,0-0.627-1.487,0.287-0.991
						c0.913,0.495,1.801,3.288,2.088,4.697c0.286,1.408,1.589,5.897,2.699,6.979C445.449,268.735,441.273,270.537,441.273,270.537z"
						/>
				</g>
			</g>
			<g>
				<g>
					<path style="fill:#353A3D;" d="M431.107,287.85c0,0-1.374,0.122-4.297-0.887c-2.923-1.01-3.141-6.119-3.772-5.515
						c-1.29,1.235-2.508,0.383-2.995-0.349c0,0,1.427-1.878,0.766-2.783c-0.661-0.904-1.737-1.564-1.737-1.564
						s2.056-9.907,11.41-5.394C441.44,276.648,431.107,287.85,431.107,287.85z"/>
				</g>
			</g>
			<g>
				<g>
					<path style="fill:#D4D8E8;" d="M420.588,293.122l0.329-1.433c0,0,5.971-0.121,9.228,0.35l0.344,1.712
						C430.488,293.752,426.316,295.644,420.588,293.122z"/>
				</g>
			</g>
			<g>
				<g>
					<path style="fill:#EEA886;" d="M422.061,280.195c0.542-0.9,2.547-1.509,2.783,1.044c0.183,1.979-3.584,4.141-3.619,2.297
						C421.19,281.691,421.699,280.795,422.061,280.195z"/>
				</g>
			</g>
			<g>
				<g>
					<path style="fill:#E55353;" d="M391.842,276.085c0,0-2.154,0.052-3.199,0.996c0,0-0.068,0.6,0.174,1.071
						c0,0,1.867-0.871,3.3-1.034C392.116,277.118,392.092,276.335,391.842,276.085z"/>
				</g>
			</g>
			<g>
				<g>
					<path style="fill:#353A3D;" d="M389.302,276.621c-0.198,0.471,0.022,1.015,0.493,1.214c0.471,0.198,1.015-0.022,1.214-0.493
						c0.198-0.472-0.021-1.015-0.493-1.214C390.045,275.929,389.501,276.15,389.302,276.621z"/>
				</g>
			</g>
		</g>
		<g>
			<g>
				<g>
					<path style="fill:#6069A8;" d="M336.389,200.064c0,0,3.079,5.22,4.379,6.072c1.766,1.157,0.659,2.328-0.179,2.329
						c-0.838,0.001-5.118,0.307-6.061-0.763c-0.943-1.07-1.41-4.278-2.288-5.117c-0.877-0.839-1.782-4.174,0.427-4.984
						C334.621,196.883,336.389,200.064,336.389,200.064z"/>
				</g>
			</g>
		</g>
		<g>
			<g>
				<g>
					<path style="fill:#202338;" d="M335.056,197.768c0,0,3.526,6.113,4.134,7.016c0.607,0.903-1.145,0.901-2.231,0.473
						c-1.086-0.429-3.816-4.813-4.209-5.612c-0.468-0.953-0.084-2.044-0.084-2.044L335.056,197.768z"/>
				</g>
			</g>
		</g>
		<g>
			<g>
				<g>
					<polygon style="fill:#6069A8;" points="331.483,201.057 332.297,207.323 332.729,207.342 332.594,202.834 					"/>
				</g>
			</g>
		</g>
		<g>
			<g>
				<g>
					<path style="fill:#6069A8;" d="M305.854,200.064c0,0,3.08,5.22,4.379,6.072c1.766,1.157,0.66,2.328-0.178,2.329
						c-0.838,0.001-5.119,0.307-6.061-0.763c-0.943-1.07-1.411-4.278-2.288-5.117c-0.877-0.839-1.813-4.26,0.427-4.984
						C304.097,196.965,305.854,200.064,305.854,200.064z"/>
				</g>
			</g>
		</g>
		<g>
			<g>
				<g>
					<path style="fill:#202338;" d="M304.705,197.78c0,0,3.342,6.1,3.95,7.003c0.607,0.903-1.146,0.901-2.23,0.473
						c-1.086-0.429-3.817-4.813-4.209-5.612c-0.468-0.953-0.084-2.044-0.084-2.044L304.705,197.78z"/>
				</g>
			</g>
		</g>
		<g>
			<g>
				<g>
					<polygon style="fill:#6069A8;" points="300.947,201.057 301.762,207.323 302.193,207.342 302.06,202.834 					"/>
				</g>
			</g>
		</g>
		<g>
			<g>
				<g>
					<path style="fill:#202338;" d="M292.192,152.559l27.864,12.696c0,0,3.109,1.011,3.459,4.465
						c1.088,10.779,9.15,27.88,9.15,27.88c2.588,1.265,2.39,0.167,2.39,0.167c-1.63-5.234-3.615-26.803-4.323-35.476
						c-0.15-1.837-0.243-3.095-0.264-3.497c-0.014-0.274-0.313-0.632-0.828-1.05c-3.824-3.101-19.557-9.52-19.557-9.52
						C298.272,147.926,292.192,152.559,292.192,152.559z"/>
				</g>
			</g>
		</g>
		<g>
			<g>
				<g>
					<path style="fill:#202338;" d="M286.94,158.011c0.862,7.532,11.614,6.67,11.614,6.67h13.03c0,0-3.423,7.616-4.745,14.04
						c-1.402,6.817-4.708,18.88-4.708,18.88s0.216,0.409,2.573,0.18c0,0,10.229-20.386,14.145-25.511
						c0.842-1.103,3.256-7.089,3.672-10.66c0.141-1.202,0.054-2.129-0.395-2.506c-0.453-0.378-1.491-1.093-2.877-1.966
						c-4.082-2.574-11.17-6.536-15.119-7.423c-5.289-1.189-13.654-3.417-13.654-3.417S286.078,150.48,286.94,158.011z"/>
				</g>
			</g>
		</g>
		<g>
			<path style="fill:#464240;" d="M295.809,99.998c0,0-1.95-3.703-1-7.646c0.951-3.943,4.609-7.872,9.967-6.067
				c5.358,1.804,9.688,5.966,6.477,10.778c-3.212,4.811,2.906,6.985,1.347,9.275c-1.559,2.29-0.968,4.68-0.308,5.213
				c0.66,0.532,2.789,2.432,2.555,4.68c-0.234,2.248-10.394-6.553-10.394-6.553S298.919,98.561,295.809,99.998z"/>
		</g>
		<g>
			<path style="fill:#EB4747;" d="M312.137,147.323c0,0-0.807,3.92-21.617-1.029C290.52,146.294,297.495,143.976,312.137,147.323z"
				/>
		</g>
		<g>
			<g>
				<path style="fill:#325BB3;" d="M290.283,147.393c-0.323,0.616-0.646,1.232-0.968,1.848c7.607,0.222,15.215,0.443,22.821,0.665
					c-1.202-4.029-0.813-9.486-0.602-13.628c0.258-5.059,3.051-8.576,2.754-13.693c1.505,0.244,1.765,0.29,3.272,0.521
					c-2.306-6.568-3.095-9.821-10.255-12.35c-2.332-0.823-3.863-0.986-6.387-0.778c-8.293,0.683-10.795,0.781-14.867,8.296
					c6.376,1.015,5.326,3.305,7.26,9.648c0.943,3.093,1.928,6.545,1.422,9.808C294.236,140.941,290.283,144.464,290.283,147.393z"/>
			</g>
		</g>
		<g>
			<g>
				<path style="fill:#EEA886;" d="M303.518,112.348c-3.395-0.642-2.672-2.529-2.672-2.529s0.157-1.065,0.219-2.412
					c0.016-0.345,0.024-0.709,0.022-1.077c-0.001-0.559-0.028-1.131-0.093-1.669c-0.278-2.278,6.16-0.919,6.16-0.919
					s-0.371,4.609,0.518,5.991C308.559,111.115,306.912,112.989,303.518,112.348z"/>
			</g>
		</g>
		<g>
			<g>
				<path style="fill:#EEA886;" d="M297.043,109.807c0,0,6.846,7.905,9.377,9.737c0,0,2.907-2.628,1.115-9.566
					C307.535,109.979,304.229,108.323,297.043,109.807z"/>
			</g>
		</g>
		<g>
			<path style="fill:#EEA886;" d="M297.229,90.781c0,0-3.556,6.851-0.03,13.339c3.527,6.489,10.455-2.826,10.902-3.919
				c0.449-1.093,2.824-7.274-1.9-9.153C301.476,89.171,298.236,88.922,297.229,90.781z"/>
		</g>
		<g>
			<path style="fill:#464240;" d="M298.411,93.212c0,0-2.447,3.215-2.737,5.59c0,0-0.975-4.491,1.78-8.805
				c2.755-4.314,9.76-0.205,10.698,1.519c0.938,1.724,3.688,3.243-0.932,10.651C307.221,102.166,298.914,96.395,298.411,93.212z"/>
		</g>
		<g>
			<path style="fill:#A77860;" d="M304.093,104.804c0,0-0.617,1.349-3.028,2.603c0.016-0.345,0.024-0.709,0.022-1.077
				C301.087,106.33,302.72,106.133,304.093,104.804z"/>
		</g>
		<g>
			<path style="fill:#EEA886;" d="M268.16,141.23c0,0-1.689,0.751-2.492,0.411c-0.801-0.341-2.04-0.407-2.431-0.408
				c-0.522-0.001-2.159-0.585-2.132,0.054c0.029,0.64,2.657,1.085,3.195,1.285c0.538,0.199-1.609,1.381-1.809,1.906
				c-0.199,0.525,2.225,3.971,3.591,2.989c1.367-0.982,2.107-2.942,2.386-3.066c0.278-0.124,1.026-0.675,1.026-0.675L268.16,141.23z
				"/>
		</g>
		<g>
			<path style="fill:#EEA886;" d="M262.751,144.173c0,0-3.964,3.287-4.025,3.73c-0.063,0.444,0.147,0.652,0.531,0.36
				c0.384-0.291,3.931-3.063,3.931-3.063s-3.972,4.69-4.105,5.039c-0.078,0.204,0.303,0.628,0.524,0.491
				c0.222-0.137,4.445-4.553,4.445-4.553s-3.7,4.386-3.72,4.715c-0.018,0.287,0.428,0.597,0.727,0.291
				c0.299-0.306,3.98-4.176,3.98-4.176s-2.475,3.367-2.322,3.664c0.094,0.181,0.406,0.562,1.016-0.328
				c0.609-0.89,2.283-2.831,2.283-2.831L262.751,144.173z"/>
		</g>
		<g>
			<g>
				<path style="fill:#FF7E55;" d="M310.225,164.681h-11.67c0,0-10.752,0.862-11.613-6.669c-0.863-7.532,3.535-11.714,3.535-11.714
					s5.68,1.512,10.639,2.71c2.482-0.527,5.475-0.87,8.969-0.782c0,0,21.02,6.946,20.387,10.602
					C330.471,158.828,321.678,154.127,310.225,164.681z"/>
			</g>
		</g>
		<g>
			<polygon style="fill:#5E5853;" points="302.629,151.639 324.879,151.311 313.645,157.016 			"/>
		</g>
		<g>
			<path style="fill:#325BB3;" d="M309.541,148.796c0,0-5.006,1.939-11.142,0.186l-0.287-2.291l12.634,0.702L309.541,148.796z"/>
		</g>
		<g>
			<polygon style="fill:#91887F;" points="313.645,157.016 302.629,152.748 302.629,151.639 314.516,155.927 			"/>
		</g>
		<g>
			<g>
				<path style="fill:#EDDAD3;" d="M309.463,149.856c-0.059,0.822,0.772,1.415,1.531,1.091l1.291-0.551
					c0.389-0.165,0.614-0.575,0.547-0.993c-0.537-3.366-1.691-16.466-0.004-18.715c0.623-0.831,1.012-1.559,1.23-2.195
					c1.114,2.871,2.5,6.569,3.051,8.559l10.512,13.985l3.525,0.894c-4.399-10.598-7.932-16.213-7.932-16.213
					c-0.689-1.847-2.661-7.441-4.408-12.42c-1.104-3.145-2.116-6.045-2.66-7.603c-0.276-0.79-0.82-1.457-1.539-1.885
					c-1.628-0.974-4.341-2.507-6.802-3.702c-0.01-0.005-0.02-0.009-0.029-0.014c-0.079-0.038-0.157-0.076-0.235-0.114
					c-0.003,0-0.004-0.001-0.005-0.001c-0.001-0.001-0.001-0.001-0.001-0.001c4.678,7.078,2.854,27.067,1.931,39.85
					C309.465,149.837,309.464,149.847,309.463,149.856z"/>
			</g>
			<g>
				<path style="fill:#EDDAD3;" d="M292.098,110.582c-1.499,0.232-5.215,3.839-7.188,7.48c-2.252,4.156-4.545,8.887-6.263,10.443
					c-3.159,2.863-12.003,12.98-12.423,12.735c-0.162-0.094,2.425,3.021,2.754,3.166c0.164,0.073,14.535-12.379,15.915-14.277
					c1.31-1.799,4.809-9.348,5.855-9.182c0,0,0.001,0.002,0.003,0.005c0,0.001,0.001,0.002,0.002,0.003
					c0.079,0.171,1.352,2.932,2.559,6.966c0.02,0.067,0.039,0.134,0.06,0.201c0.831,2.814,0.755,5.869,0.305,9.302
					c-0.34,2.591-2.274,6.828-3.44,8.889c-0.141,0.248-0.104,0.72,0.047,1.079v0c0.091,0.214,0.223,0.388,0.383,0.447l4.219,1.564
					l0.992,0.367c0.714,0.264,1.463,0.127,2.022-0.28c0.459-0.333,0.79-0.846,0.871-1.466c0.938-7.216,2.125-14.589,3.071-17.366
					c4.15-12.187-1.622-21.344-1.622-21.344S293.412,110.091,292.098,110.582z"/>
			</g>
		</g>
		<g>
			<polygon style="fill:#6E6760;" points="313.645,157.016 320.264,138.945 341.6,139.294 335.291,155.946 			"/>
		</g>
		<g>
			<path style="fill:#807066;" d="M327.09,146.939c-0.65,1.302-0.454,2.719,0.439,3.167c0.895,0.447,2.146-0.246,2.797-1.547
				c0.651-1.301,0.455-2.719-0.439-3.167C328.994,144.945,327.741,145.638,327.09,146.939z"/>
		</g>
		<g>
			<path style="fill:#464240;" d="M304.599,97.603c0,0,1.366,2.126,0.104,3.962c-1.264,1.835,0.318,3.638,0.592,5.578
				c0.274,1.94-5.27,7.103,0.897,9.7c6.166,2.597,8.129-1.696,6.555-4.059c-1.572-2.363-2.689-4.28-2.822-7.648
				C309.791,101.767,308.683,96.516,304.599,97.603z"/>
		</g>
		<g>
			<polygon style="fill:#78C2FF;" points="259.933,72.086 286.214,72.086 286.214,91.136 286.214,95.148 282.202,91.136 
				259.933,91.136 			"/>
		</g>
	</g>
</g>
</svg>
